Patient4_TMGait_0pt5_02_right_29_GRF.mot
version=1
nRows=52
nColumns=19
inDegrees=no
endheader
time	F1x	F1y	F1z	M1x	M1y	M1z	F2x	F2y	F2z	M2x	M2y	M2z	EC1x	EC1y	EC1z	EC2x	EC2y	EC2z
37.85	6.9079	751.9565	59.2805	-276.4072	-51.4549	677.0835	4.1558	-8.5991	-4.3539	-0.46679	8.4315	-14.1851	-0.0592	0.0182	-0.0073	-0.0462	0.0165	0.9585
37.8628	8.6692	746.9328	61.6253	-274.0444	-51.8877	671.2546	2.5781	-4.9585	-3.0514	0.025037	5.9344	-8.6422	-0.0592	0.0182	-0.0073	-0.0462	0.0165	0.9585
37.8756	10.7574	741.2607	63.2288	-271.5555	-51.5902	663.9843	1.2824	-1.9145	-1.9021	0.42218	3.7447	-4.0008	-0.0592	0.0182	-0.0073	-0.0462	0.0165	0.9585
37.8884	13.0163	735.622	64.0084	-269.2234	-50.5946	655.9471	0.31806	0.39136	-0.99299	0.71893	2.0302	-0.4861	-0.0592	0.0182	-0.0073	-0.0462	0.0165	0.9585
37.9011	15.3188	730.7304	64.0178	-267.3084	-49.0076	647.9219	-0.34056	1.9899	-0.3385	0.92579	0.81473	1.9404	-0.0592	0.0182	-0.0073	-0.0462	0.0165	0.9585
37.9139	17.5772	727.1843	63.4331	-266.01	-47.0117	640.6072	-0.75137	2.976	0.086937	1.0535	0.043527	3.425	-0.0592	0.0182	-0.0073	-0.0462	0.0165	0.9585
37.9267	19.7281	725.4399	62.4356	-265.4615	-44.7728	634.5805	-1.0039	3.4777	0.32932	1.1125	-0.36962	4.1877	-0.0592	0.0182	-0.0073	-0.0462	0.0165	0.9585
37.9395	21.754	725.7534	61.224	-265.7212	-42.4561	630.209	-1.1536	3.5782	0.43812	1.1008	-0.52503	4.384	-0.0592	0.0182	-0.0073	-0.0462	0.0165	0.9585
37.9523	23.6385	728.1905	59.9372	-266.7798	-40.1739	627.6665	-1.2781	3.3389	0.4632	1.0085	-0.50649	4.1549	-0.0592	0.0182	-0.0073	-0.0462	0.0165	0.9585
37.9651	25.401	732.5911	58.6951	-268.5529	-38.0161	626.8912	-1.3993	2.7453	0.44619	0.80641	-0.3897	3.5228	-0.0592	0.0182	-0.0073	-0.0462	0.0165	0.9585
37.9779	27.0603	738.6024	57.5609	-270.8915	-36.0217	627.641	-1.5506	1.7577	0.41841	0.46113	-0.22923	2.4846	-0.0592	0.0182	-0.0073	-0.0462	0.0165	0.9585
37.9906	28.6515	745.693	56.598	-273.5868	-34.227	629.4885	-1.7143	0.30533	0.39757	-0.064566	-0.070861	0.97444	-0.0592	0.0182	-0.0073	-0.0462	0.0165	0.9585
38.0034	30.1951	753.1789	55.8394	-276.3793	-32.644	631.8591	-1.8525	-1.6578	0.39984	-0.79429	0.042905	-1.0495	-0.0592	0.0182	-0.0073	-0.0462	0.0165	0.9585
38.0162	31.7353	760.2561	55.3184	-278.9674	-31.2833	634.0559	-1.8821	-4.1082	0.42899	-1.7207	0.073008	-3.5663	-0.0592	0.0182	-0.0073	-0.0462	0.0165	0.9585
38.029	33.2924	766.033	55.0248	-281.0201	-30.1241	635.3141	-1.6634	-6.8779	0.48717	-2.7784	-0.031677	-6.4162	-0.0592	0.0182	-0.0073	-0.0462	0.0165	0.9585
38.0418	34.8821	769.6266	54.9427	-282.2139	-29.1482	634.896	-1.0318	-9.5576	0.56039	-3.8089	-0.31715	-9.181	-0.0592	0.0182	-0.0073	-0.0462	0.0165	0.9585
38.0546	36.5174	770.3063	55.0214	-282.286	-28.3097	632.2099	0.23196	-11.4055	0.63757	-4.5239	-0.85045	-11.1161	-0.0592	0.0182	-0.0073	-0.0462	0.0165	0.9585
38.0674	38.2021	767.611	55.2112	-281.0703	-27.5743	626.915	2.3326	-11.2263	0.68559	-4.4629	-1.6719	-11.0002	-0.0592	0.0182	-0.0073	-0.0462	0.0165	0.9585
38.0801	39.9328	761.3692	55.4426	-278.5075	-26.8976	618.9111	5.4598	-7.3387	0.67045	-2.9755	-2.812	-7.1279	-0.0592	0.0182	-0.0073	-0.0462	0.0165	0.9585
38.0929	41.6834	751.6453	55.65	-274.6213	-26.2508	608.3209	9.6704	2.4554	0.54077	0.78231	-4.237	2.7545	-0.0592	0.0182	-0.0073	-0.0462	0.0165	0.9585
38.1057	43.4145	738.5196	55.7469	-269.4453	-25.5903	595.2753	14.815	20.6681	0.24248	7.7754	-5.8267	21.2069	-0.0592	0.0182	-0.0073	-0.0462	0.0165	0.9585
38.1185	45.0385	721.9162	55.6334	-262.9597	-24.8774	579.7938	20.3455	49.7638	-0.28942	18.9481	-7.2986	50.763	-0.0592	0.0182	-0.0073	-0.0462	0.0165	0.9585
38.1313	46.429	701.428	55.1616	-255.0358	-24.0424	561.6104	25.1533	91.4571	-1.1154	34.9581	-8.1645	93.2025	-0.0592	0.0182	-0.0073	-0.0462	0.0165	0.9585
38.1441	47.4141	676.2825	54.1518	-245.4247	-23.0066	540.1662	27.3838	145.6678	-2.283	55.7758	-7.6789	148.4762	-0.0592	0.0182	-0.0073	-0.0462	0.0165	0.9585
38.1569	47.8167	645.5123	52.3778	-233.8229	-21.6548	514.7141	24.626	209.3352	-3.8086	80.2266	-4.9443	213.5078	-0.0592	0.0182	-0.0073	-0.0462	0.0165	0.9585
38.1696	47.4787	608.3641	49.6761	-220.0097	-19.9161	484.6237	15.6668	276.3373	-5.8794	105.941	0.63998	282.1092	-0.0592	0.0182	-0.0073	-0.0462	0.0165	0.9585
38.1824	46.3214	564.7337	46.0303	-203.9886	-17.7916	449.7054	2.8007	340.4808	-9.1774	130.4634	8.8715	347.8826	-0.0592	0.0182	-0.0073	-0.0462	0.0165	0.9585
38.1952	44.294	515.1694	41.6944	-185.9628	-15.4747	410.256	-11.0627	398.1535	-13.7215	152.3687	18.6362	406.8257	-0.0592	0.0182	-0.0073	-0.0462	0.0165	0.9585
38.208	41.2986	460.5063	37.1109	-166.2062	-13.3119	366.8531	-23.825	449.2174	-19.3412	171.5757	28.9634	458.4937	-0.0592	0.0182	-0.0073	-0.0462	0.0165	0.9585
38.2208	37.2413	401.8102	32.6653	-145.0652	-11.607	320.3021	-34.2636	495.0937	-25.4385	188.652	38.8007	504.2095	-0.0592	0.0182	-0.0073	-0.0462	0.0165	0.9585
38.2336	32.0907	340.6093	28.5178	-123.0476	-10.4761	271.8054	-42.0228	537.227	-31.6329	204.1882	47.6449	545.457	-0.0592	0.0182	-0.0073	-0.0462	0.0165	0.9585
38.2464	25.9383	278.9864	24.661	-100.8668	-9.8757	222.995	-47.1091	576.8116	-37.5228	218.6793	55.1312	583.4368	-0.0592	0.0182	-0.0073	-0.0462	0.0165	0.9585
38.2591	19.0599	219.4738	21.0179	-79.4132	-9.6492	175.8517	-49.7599	614.8416	-43.1188	232.5102	61.3821	619.1995	-0.0592	0.0182	-0.0073	-0.0462	0.0165	0.9585
38.2719	11.9532	164.7661	17.5643	-59.6476	-9.604	132.493	-50.3717	651.5119	-48.4159	245.7681	66.5655	653.0097	-0.0592	0.0182	-0.0073	-0.0462	0.0165	0.9585
38.2847	5.3437	117.1419	14.3162	-42.4007	-9.4966	94.6898	-49.6111	686.0574	-53.5638	258.1606	71.0774	684.2691	-0.0592	0.0182	-0.0073	-0.0462	0.0165	0.9585
38.2975	-0.063722	77.9552	11.2952	-28.1851	-9.0903	63.495	-48.1304	717.165	-58.5125	269.2027	75.1211	711.8199	-0.0592	0.0182	-0.0073	-0.0462	0.0165	0.9585
38.3103	-3.7872	47.5231	8.5266	-17.1391	-8.2407	39.1523	-46.48	743.6681	-63.1367	278.4782	78.7745	734.6645	-0.0592	0.0182	-0.0073	-0.0462	0.0165	0.9585
38.3231	-5.7013	25.2855	6.0394	-9.0758	-6.9391	21.2508	-44.8809	764.836	-67.0835	285.757	81.7769	752.1554	-0.0592	0.0182	-0.0073	-0.0462	0.0165	0.9585
38.3359	-6.0412	10.1659	3.8886	-3.6077	-5.3304	8.9783	-43.3694	780.2593	-70.1373	290.9233	83.9245	763.951	-0.0592	0.0182	-0.0073	-0.0462	0.0165	0.9585
38.3486	-5.3676	0.89623	2.172	-0.26842	-3.7067	1.3634	-41.8769	789.6878	-72.1018	293.9244	84.9967	769.8208	-0.0592	0.0182	-0.0073	-0.0462	0.0165	0.9585
38.3614	-4.2417	-3.9255	0.94961	1.4572	-2.3266	-2.6658	-40.2843	793.1995	-72.9724	294.8154	84.947	769.8449	-0.0592	0.0182	-0.0073	-0.0462	0.0165	0.9585
38.3742	-3.0255	-5.6834	0.16057	2.0737	-1.2701	-4.2019	-38.4698	791.3807	-72.7952	293.8308	83.7847	764.5878	-0.0592	0.0182	-0.0073	-0.0462	0.0165	0.9585
38.387	-1.9403	-5.5465	-0.27397	2.0084	-0.54914	-4.1759	-36.3392	785.2744	-71.7509	291.37	81.6596	755.0284	-0.0592	0.0182	-0.0073	-0.0462	0.0165	0.9585
38.3998	-1.0732	-4.4214	-0.46751	1.5887	-0.096791	-3.3277	-33.8557	776.3289	-70.0229	287.9728	78.7419	742.5372	-0.0592	0.0182	-0.0073	-0.0462	0.0165	0.9585
38.4126	-0.44714	-2.9386	-0.49621	1.0422	0.14289	-2.1609	-30.9737	766.1804	-67.8447	284.243	75.252	728.6431	-0.0592	0.0182	-0.0073	-0.0462	0.0165	0.9585
38.4254	-0.044511	-1.4639	-0.44193	0.50155	0.24517	-0.97273	-27.7168	756.4341	-65.3976	280.7713	71.3817	714.8533	-0.0592	0.0182	-0.0073	-0.0462	0.0165	0.9585
38.4381	0.1904	-0.20167	-0.34076	0.040227	0.25327	0.060963	-24.1121	748.3947	-62.8714	278.0347	67.3348	702.3789	-0.0592	0.0182	-0.0073	-0.0462	0.0165	0.9585
38.4509	0.29795	0.78647	-0.24132	-0.32	0.22293	0.89322	-20.2269	742.9415	-60.4054	276.3457	63.2731	692.052	-0.0592	0.0182	-0.0073	-0.0462	0.0165	0.9585
38.4637	0.32757	1.5013	-0.15083	-0.57946	0.1725	1.5051	-16.1383	740.4506	-58.1241	275.8281	59.3432	684.2377	-0.0592	0.0182	-0.0073	-0.0462	0.0165	0.9585
38.4765	0.29511	1.9968	-0.09175	-0.75593	0.12729	1.9449	-11.9471	740.8998	-56.0964	276.4524	55.6417	678.9483	-0.0592	0.0182	-0.0073	-0.0462	0.0165	0.9585
38.4893	0.23721	2.3244	-0.048662	-0.8681	0.083986	2.2488	-7.7415	743.9514	-54.3805	278.0665	52.2462	675.9216	-0.0592	0.0182	-0.0073	-0.0462	0.0165	0.9585
38.5021	0.16152	2.5367	-0.023788	-0.93549	0.049154	2.4632	-3.6027	749.0157	-52.9827	280.4268	49.1834	674.6786	-0.0592	0.0182	-0.0073	-0.0462	0.0165	0.9585
